<svg width="208" height="52" viewBox="0 0 208 52" fill="none" xmlns="http://www.w3.org/2000/svg">
<path d="M9.15995 51.2C16.72 51.2 20.74 49.46 23.62 43.16L38.5 10.94H28.48L22.78 24.62L20.38 31.76H19.78L17.26 24.68L10.9 10.94H0.699951L15.4 41.12C14.8 42.44 13.84 43.04 11.62 43.04H4.23995V51.2H9.15995Z" fill="white"/>
<path d="M49.6656 41V23.6C49.6656 19.82 51.1056 17.96 55.1256 17.96C58.7856 17.96 60.1056 19.4 60.1056 22.7V25.82H69.1056V20.84C69.1056 14.96 66.3456 10.34 59.6256 10.34C53.5656 10.34 50.3856 14.06 49.5456 18.92H49.0056V10.94H40.6656V41H49.6656Z" fill="white"/>
<path d="M81.3648 41V26H105.485V17.96H81.3648V8.9H106.385V0.800003H72.3648V41H81.3648Z" fill="white"/>
<path d="M126.236 41.6C136.496 41.6 143.396 35.48 143.396 26C143.396 16.4 136.496 10.34 126.236 10.34C115.976 10.34 109.076 16.4 109.076 26C109.076 35.48 115.976 41.6 126.236 41.6ZM126.236 33.62C120.116 33.62 118.016 31.28 118.016 26C118.016 20.72 120.116 18.26 126.236 18.26C132.296 18.26 134.456 20.72 134.456 26C134.456 31.28 132.296 33.62 126.236 33.62Z" fill="white"/>
<path d="M156.072 41V0.800003H147.072V41H156.072Z" fill="white"/>
<path d="M169.783 7.88V0.800003H160.783V7.88H169.783ZM169.783 41V10.94H160.783V41H169.783Z" fill="white"/>
<path d="M190.514 41.6C200.774 41.6 207.674 35.48 207.674 26C207.674 16.4 200.774 10.34 190.514 10.34C180.254 10.34 173.354 16.4 173.354 26C173.354 35.48 180.254 41.6 190.514 41.6ZM190.514 33.62C184.394 33.62 182.294 31.28 182.294 26C182.294 20.72 184.394 18.26 190.514 18.26C196.574 18.26 198.734 20.72 198.734 26C198.734 31.28 196.574 33.62 190.514 33.62Z" fill="white"/>
</svg>
